<svg width="16" height="15" viewBox="0 0 16 15" fill="none" xmlns="http://www.w3.org/2000/svg">
<path d="M0.536316 6.66143C0.0724487 7.12529 0.0724487 7.87861 0.536316 8.34248L6.47382 14.28C6.93768 14.7438 7.691 14.7438 8.15487 14.28C8.61874 13.8161 8.61874 13.0628 8.15487 12.5989L3.05604 7.5001L8.15116 2.40127C8.61503 1.9374 8.61503 1.18408 8.15116 0.720215C7.68729 0.256348 6.93397 0.256348 6.4701 0.720215L0.532605 6.65771L0.536316 6.66143ZM13.5988 0.723926L7.66132 6.66143C7.19745 7.12529 7.19745 7.87861 7.66132 8.34248L13.5988 14.28C14.0627 14.7438 14.816 14.7438 15.2799 14.28C15.7437 13.8161 15.7437 13.0628 15.2799 12.5989L10.181 7.5001L15.2762 2.40127C15.74 1.9374 15.74 1.18408 15.2762 0.720215C14.8123 0.256348 14.059 0.256348 13.5951 0.720215L13.5988 0.723926Z" fill="white"/>
</svg>
