<svg width="16" height="15" viewBox="0 0 16 15" fill="none" xmlns="http://www.w3.org/2000/svg">
<path d="M15.2799 8.33882C15.7437 7.87495 15.7437 7.12163 15.2799 6.65776L9.34238 0.720263C8.87851 0.256396 8.12519 0.256396 7.66132 0.720263C7.19746 1.18413 7.19746 1.93745 7.66132 2.40132L12.7602 7.50015L7.66503 12.599C7.20117 13.0628 7.20117 13.8162 7.66503 14.28C8.1289 14.7439 8.88222 14.7439 9.34609 14.28L15.2836 8.34253L15.2799 8.33882ZM2.21738 14.2763L8.15488 8.33882C8.61874 7.87495 8.61874 7.12163 8.15488 6.65776L2.21738 0.720263C1.75351 0.256396 1.00019 0.256396 0.536321 0.720263C0.0724542 1.18413 0.0724542 1.93745 0.536321 2.40132L5.63515 7.50015L0.540033 12.599C0.0761653 13.0628 0.0761653 13.8162 0.540033 14.28C1.0039 14.7439 1.75722 14.7439 2.22109 14.28L2.21738 14.2763Z" fill="white"/>
</svg>
